<svg xmlns="http://www.w3.org/2000/svg" xmlns:xlink="http://www.w3.org/1999/xlink" width="500" zoomAndPan="magnify" viewBox="0 0 375 374.999991" height="500" preserveAspectRatio="xMidYMid meet" version="1.0"><defs><clipPath id="id1"><path d="M 146 32 L 256 32 L 256 128 L 146 128 Z M 146 32 " clip-rule="nonzero"/></clipPath><clipPath id="id2"><path d="M 26.488281 341.046875 L 33.957031 26.136719 L 348.867188 33.605469 L 341.398438 348.515625 Z M 26.488281 341.046875 " clip-rule="nonzero"/></clipPath><clipPath id="id3"><path d="M 26.488281 341.046875 L 33.957031 26.136719 L 348.867188 33.605469 L 341.398438 348.515625 Z M 26.488281 341.046875 " clip-rule="nonzero"/></clipPath><clipPath id="id4"><path d="M 26.488281 341.046875 L 33.957031 26.136719 L 348.867188 33.605469 L 341.398438 348.515625 Z M 26.488281 341.046875 " clip-rule="nonzero"/></clipPath><clipPath id="id5"><path d="M 207 60 L 328 60 L 328 144 L 207 144 Z M 207 60 " clip-rule="nonzero"/></clipPath><clipPath id="id6"><path d="M 26.488281 341.046875 L 33.957031 26.136719 L 348.867188 33.605469 L 341.398438 348.515625 Z M 26.488281 341.046875 " clip-rule="nonzero"/></clipPath><clipPath id="id7"><path d="M 26.488281 341.046875 L 33.957031 26.136719 L 348.867188 33.605469 L 341.398438 348.515625 Z M 26.488281 341.046875 " clip-rule="nonzero"/></clipPath><clipPath id="id8"><path d="M 26.488281 341.046875 L 33.957031 26.136719 L 348.867188 33.605469 L 341.398438 348.515625 Z M 26.488281 341.046875 " clip-rule="nonzero"/></clipPath><clipPath id="id9"><path d="M 247 146 L 343 146 L 343 255 L 247 255 Z M 247 146 " clip-rule="nonzero"/></clipPath><clipPath id="id10"><path d="M 26.488281 341.046875 L 33.957031 26.136719 L 348.867188 33.605469 L 341.398438 348.515625 Z M 26.488281 341.046875 " clip-rule="nonzero"/></clipPath><clipPath id="id11"><path d="M 26.488281 341.046875 L 33.957031 26.136719 L 348.867188 33.605469 L 341.398438 348.515625 Z M 26.488281 341.046875 " clip-rule="nonzero"/></clipPath><clipPath id="id12"><path d="M 26.488281 341.046875 L 33.957031 26.136719 L 348.867188 33.605469 L 341.398438 348.515625 Z M 26.488281 341.046875 " clip-rule="nonzero"/></clipPath><clipPath id="id13"><path d="M 231 207 L 315 207 L 315 327 L 231 327 Z M 231 207 " clip-rule="nonzero"/></clipPath><clipPath id="id14"><path d="M 26.488281 341.046875 L 33.957031 26.136719 L 348.867188 33.605469 L 341.398438 348.515625 Z M 26.488281 341.046875 " clip-rule="nonzero"/></clipPath><clipPath id="id15"><path d="M 26.488281 341.046875 L 33.957031 26.136719 L 348.867188 33.605469 L 341.398438 348.515625 Z M 26.488281 341.046875 " clip-rule="nonzero"/></clipPath><clipPath id="id16"><path d="M 26.488281 341.046875 L 33.957031 26.136719 L 348.867188 33.605469 L 341.398438 348.515625 Z M 26.488281 341.046875 " clip-rule="nonzero"/></clipPath><clipPath id="id17"><path d="M 120 246 L 229 246 L 229 343 L 120 343 Z M 120 246 " clip-rule="nonzero"/></clipPath><clipPath id="id18"><path d="M 26.488281 341.046875 L 33.957031 26.136719 L 348.867188 33.605469 L 341.398438 348.515625 Z M 26.488281 341.046875 " clip-rule="nonzero"/></clipPath><clipPath id="id19"><path d="M 26.488281 341.046875 L 33.957031 26.136719 L 348.867188 33.605469 L 341.398438 348.515625 Z M 26.488281 341.046875 " clip-rule="nonzero"/></clipPath><clipPath id="id20"><path d="M 26.488281 341.046875 L 33.957031 26.136719 L 348.867188 33.605469 L 341.398438 348.515625 Z M 26.488281 341.046875 " clip-rule="nonzero"/></clipPath><clipPath id="id21"><path d="M 48 231 L 168 231 L 168 314 L 48 314 Z M 48 231 " clip-rule="nonzero"/></clipPath><clipPath id="id22"><path d="M 26.488281 341.046875 L 33.957031 26.136719 L 348.867188 33.605469 L 341.398438 348.515625 Z M 26.488281 341.046875 " clip-rule="nonzero"/></clipPath><clipPath id="id23"><path d="M 26.488281 341.046875 L 33.957031 26.136719 L 348.867188 33.605469 L 341.398438 348.515625 Z M 26.488281 341.046875 " clip-rule="nonzero"/></clipPath><clipPath id="id24"><path d="M 26.488281 341.046875 L 33.957031 26.136719 L 348.867188 33.605469 L 341.398438 348.515625 Z M 26.488281 341.046875 " clip-rule="nonzero"/></clipPath><clipPath id="id25"><path d="M 32 119 L 129 119 L 129 229 L 32 229 Z M 32 119 " clip-rule="nonzero"/></clipPath><clipPath id="id26"><path d="M 26.488281 341.046875 L 33.957031 26.136719 L 348.867188 33.605469 L 341.398438 348.515625 Z M 26.488281 341.046875 " clip-rule="nonzero"/></clipPath><clipPath id="id27"><path d="M 26.488281 341.046875 L 33.957031 26.136719 L 348.867188 33.605469 L 341.398438 348.515625 Z M 26.488281 341.046875 " clip-rule="nonzero"/></clipPath><clipPath id="id28"><path d="M 26.488281 341.046875 L 33.957031 26.136719 L 348.867188 33.605469 L 341.398438 348.515625 Z M 26.488281 341.046875 " clip-rule="nonzero"/></clipPath><clipPath id="id29"><path d="M 61 47 L 144 47 L 144 168 L 61 168 Z M 61 47 " clip-rule="nonzero"/></clipPath><clipPath id="id30"><path d="M 26.488281 341.046875 L 33.957031 26.136719 L 348.867188 33.605469 L 341.398438 348.515625 Z M 26.488281 341.046875 " clip-rule="nonzero"/></clipPath><clipPath id="id31"><path d="M 26.488281 341.046875 L 33.957031 26.136719 L 348.867188 33.605469 L 341.398438 348.515625 Z M 26.488281 341.046875 " clip-rule="nonzero"/></clipPath><clipPath id="id32"><path d="M 26.488281 341.046875 L 33.957031 26.136719 L 348.867188 33.605469 L 341.398438 348.515625 Z M 26.488281 341.046875 " clip-rule="nonzero"/></clipPath></defs><g clip-path="url(#id1)"><g clip-path="url(#id2)"><g clip-path="url(#id3)"><g clip-path="url(#id4)"><path fill="#17a353" d="M 205.183594 63.175781 C 205.605469 55.195312 202.800781 47.0625 196.703125 40.914062 C 185.867188 29.980469 168.164062 29.316406 156.554688 39.425781 C 143.824219 50.511719 143.046875 69.847656 154.578125 81.917969 C 160.402344 88.019531 168.226562 91.058594 176.042969 91.003906 L 147.191406 118.558594 C 158.785156 130.699219 178.027344 131.140625 190.167969 119.546875 L 255.027344 57.605469 C 243.433594 45.464844 224.191406 45.019531 212.054688 56.613281 L 205.183594 63.175781 " fill-opacity="1" fill-rule="nonzero"/></g></g></g></g><g clip-path="url(#id5)"><g clip-path="url(#id6)"><g clip-path="url(#id7)"><g clip-path="url(#id8)"><path fill="#85c536" d="M 287.84375 111.917969 C 293.785156 106.574219 297.550781 98.839844 297.589844 90.179688 C 297.65625 74.785156 285.609375 61.796875 270.253906 60.738281 C 253.410156 59.578125 239.1875 72.699219 238.804688 89.386719 C 238.609375 97.820312 241.996094 105.5 247.558594 110.988281 L 207.675781 110.070312 C 207.289062 126.855469 220.582031 140.773438 237.367188 141.160156 L 327.03125 143.222656 C 327.414062 126.4375 314.121094 112.519531 297.339844 112.136719 L 287.84375 111.917969 " fill-opacity="1" fill-rule="nonzero"/></g></g></g></g><g clip-path="url(#id9)"><g clip-path="url(#id10)"><g clip-path="url(#id11)"><g clip-path="url(#id12)"><path fill="#f06f25" d="M 311.828125 204.832031 C 319.808594 205.253906 327.941406 202.449219 334.089844 196.351562 C 345.023438 185.515625 345.6875 167.8125 335.578125 156.207031 C 324.492188 143.472656 305.15625 142.699219 293.085938 154.226562 C 286.984375 160.050781 283.945312 167.875 284 175.691406 L 256.445312 146.839844 C 244.304688 158.433594 243.863281 177.675781 255.457031 189.816406 L 317.398438 254.675781 C 329.539062 243.082031 329.984375 223.839844 318.390625 211.703125 L 311.828125 204.832031 " fill-opacity="1" fill-rule="nonzero"/></g></g></g></g><g clip-path="url(#id13)"><g clip-path="url(#id14)"><g clip-path="url(#id15)"><g clip-path="url(#id16)"><path fill="#eb1f38" d="M 263.085938 287.492188 C 268.429688 293.433594 276.164062 297.199219 284.824219 297.238281 C 300.21875 297.304688 313.207031 285.257812 314.265625 269.902344 C 315.425781 253.058594 302.304688 238.839844 285.617188 238.453125 C 277.183594 238.261719 269.503906 241.644531 264.015625 247.207031 L 264.933594 207.324219 C 248.148438 206.9375 234.230469 220.230469 233.84375 237.015625 L 231.78125 326.679688 C 248.566406 327.0625 262.484375 313.769531 262.867188 296.988281 L 263.085938 287.492188 " fill-opacity="1" fill-rule="nonzero"/></g></g></g></g><g clip-path="url(#id17)"><g clip-path="url(#id18)"><g clip-path="url(#id19)"><g clip-path="url(#id20)"><path fill="#ea097f" d="M 170.171875 311.476562 C 169.75 319.457031 172.554688 327.589844 178.652344 333.738281 C 189.488281 344.671875 207.195312 345.335938 218.800781 335.226562 C 231.53125 324.140625 232.308594 304.804688 220.777344 292.734375 C 214.953125 286.632812 207.128906 283.59375 199.3125 283.648438 L 228.164062 256.09375 C 216.570312 243.953125 197.328125 243.511719 185.1875 255.105469 L 120.328125 317.050781 C 131.921875 329.1875 151.164062 329.632812 163.300781 318.039062 L 170.171875 311.476562 " fill-opacity="1" fill-rule="nonzero"/></g></g></g></g><g clip-path="url(#id21)"><g clip-path="url(#id22)"><g clip-path="url(#id23)"><g clip-path="url(#id24)"><path fill="#98198e" d="M 87.511719 262.734375 C 81.570312 268.078125 77.804688 275.8125 77.765625 284.472656 C 77.699219 299.867188 89.746094 312.855469 105.101562 313.914062 C 121.945312 315.074219 136.167969 301.953125 136.550781 285.265625 C 136.746094 276.832031 133.359375 269.152344 127.796875 263.664062 L 167.679688 264.582031 C 168.066406 247.796875 154.773438 233.878906 137.988281 233.492188 L 48.324219 231.429688 C 47.941406 248.214844 61.234375 262.132812 78.015625 262.515625 L 87.511719 262.734375 " fill-opacity="1" fill-rule="nonzero"/></g></g></g></g><g clip-path="url(#id25)"><g clip-path="url(#id26)"><g clip-path="url(#id27)"><g clip-path="url(#id28)"><path fill="#323292" d="M 63.527344 169.820312 C 55.546875 169.398438 47.414062 172.203125 41.265625 178.300781 C 30.332031 189.136719 29.667969 206.84375 39.777344 218.445312 C 50.863281 231.179688 70.199219 231.957031 82.269531 220.425781 C 88.371094 214.601562 91.410156 206.777344 91.355469 198.960938 L 118.910156 227.8125 C 131.050781 216.21875 131.492188 196.976562 119.898438 184.835938 L 57.957031 119.976562 C 45.816406 131.570312 45.371094 150.8125 56.964844 162.949219 L 63.527344 169.820312 " fill-opacity="1" fill-rule="nonzero"/></g></g></g></g><g clip-path="url(#id29)"><g clip-path="url(#id30)"><g clip-path="url(#id31)"><g clip-path="url(#id32)"><path fill="#18abe3" d="M 112.269531 87.160156 C 106.925781 81.21875 99.191406 77.453125 90.53125 77.414062 C 75.136719 77.347656 62.148438 89.394531 61.089844 104.75 C 59.929688 121.59375 73.050781 135.816406 89.738281 136.199219 C 98.171875 136.394531 105.851562 133.007812 111.339844 127.445312 L 110.421875 167.328125 C 127.207031 167.714844 141.125 154.421875 141.511719 137.636719 L 143.574219 47.972656 C 126.789062 47.589844 112.871094 60.882812 112.488281 77.664062 L 112.269531 87.160156 " fill-opacity="1" fill-rule="nonzero"/></g></g></g></g></svg>