<svg xmlns="http://www.w3.org/2000/svg" xmlns:xlink="http://www.w3.org/1999/xlink" zoomAndPan="magnify" preserveAspectRatio="xMidYMid meet" version="1.0" viewBox="21.27 307.92 334.75 45.95"><defs><g/></defs><g fill="#414a58" fill-opacity="1"><g transform="translate(15.423557, 351.885004)"><g><path d="M 43.390625 -42.515625 L 43.390625 1.515625 L 43.203125 1.515625 L 12.546875 -28.203125 L 12.734375 0 L 5.84375 0 L 5.84375 -43.96875 L 6.1875 -43.96875 L 36.734375 -13.890625 L 36.609375 -42.515625 Z M 43.390625 -42.515625 "/></g></g></g><g fill="#414a58" fill-opacity="1"><g transform="translate(71.876896, 351.885004)"><g><path d="M 34.046875 -42.515625 L 34.046875 -35.96875 L 12.671875 -35.96875 L 12.671875 -24.640625 L 31.703125 -24.640625 L 31.703125 -18.09375 L 12.671875 -18.09375 L 12.671875 -6.546875 L 34.859375 -6.546875 L 34.859375 0 L 5.84375 0 L 5.84375 -42.515625 Z M 34.046875 -42.515625 "/></g></g></g><g fill="#414a58" fill-opacity="1"><g transform="translate(117.471721, 351.885004)"><g><path d="M 40.46875 1.875 L 30.421875 -23.46875 L 19.15625 1.984375 L 2.15625 -42.28125 L 10.109375 -42.28125 L 20.03125 -13.890625 L 27.09375 -32 L 23 -42.28125 L 29.71875 -42.28125 L 40.640625 -14.71875 L 49.75 -42.28125 L 57.046875 -42.28125 Z M 40.46875 1.875 "/></g></g></g><g fill="#414a58" fill-opacity="1"><g transform="translate(183.849517, 351.885004)"><g/></g></g><g fill="#414a58" fill-opacity="1"><g transform="translate(209.712212, 351.885004)"><g><path d="M 12.671875 -42.515625 L 12.671875 -6.546875 L 33.640625 -6.546875 L 33.640625 0 L 5.84375 0 L 5.84375 -42.515625 Z M 12.671875 -42.515625 "/></g></g></g><g fill="#414a58" fill-opacity="1"><g transform="translate(253.672427, 351.885004)"><g><path d="M 12.671875 -42.515625 L 12.671875 0 L 5.84375 0 L 5.84375 -42.515625 Z M 12.671875 -42.515625 "/></g></g></g><g fill="#414a58" fill-opacity="1"><g transform="translate(279.359976, 351.885004)"><g><path d="M 31.640625 -42.515625 L 31.640625 -35.96875 L 12.671875 -35.96875 L 12.671875 -24 L 29.1875 -24 L 29.1875 -17.515625 L 12.671875 -17.515625 L 12.671875 0 L 5.84375 0 L 5.84375 -42.515625 Z M 31.640625 -42.515625 "/></g></g></g><g fill="#414a58" fill-opacity="1"><g transform="translate(321.160172, 351.885004)"><g><path d="M 34.046875 -42.515625 L 34.046875 -35.96875 L 12.671875 -35.96875 L 12.671875 -24.640625 L 31.703125 -24.640625 L 31.703125 -18.09375 L 12.671875 -18.09375 L 12.671875 -6.546875 L 34.859375 -6.546875 L 34.859375 0 L 5.84375 0 L 5.84375 -42.515625 Z M 34.046875 -42.515625 "/></g></g></g></svg>