<svg xmlns="http://www.w3.org/2000/svg" xmlns:xlink="http://www.w3.org/1999/xlink" width="500" zoomAndPan="magnify" viewBox="0 0 375 374.999991" height="500" preserveAspectRatio="xMidYMid meet" version="1.0"><defs><g/><clipPath id="id1"><path d="M 156 42 L 238 42 L 238 113 L 156 113 Z M 156 42 " clip-rule="nonzero"/></clipPath><clipPath id="id2"><path d="M 68.445312 270.085938 L 73.953125 37.652344 L 306.390625 43.164062 L 300.878906 275.597656 Z M 68.445312 270.085938 " clip-rule="nonzero"/></clipPath><clipPath id="id3"><path d="M 68.445312 270.085938 L 73.953125 37.652344 L 306.390625 43.164062 L 300.878906 275.597656 Z M 68.445312 270.085938 " clip-rule="nonzero"/></clipPath><clipPath id="id4"><path d="M 68.445312 270.085938 L 73.953125 37.652344 L 306.390625 43.164062 L 300.878906 275.597656 Z M 68.445312 270.085938 " clip-rule="nonzero"/></clipPath><clipPath id="id5"><path d="M 202 63 L 291 63 L 291 125 L 202 125 Z M 202 63 " clip-rule="nonzero"/></clipPath><clipPath id="id6"><path d="M 68.445312 270.085938 L 73.953125 37.652344 L 306.390625 43.164062 L 300.878906 275.597656 Z M 68.445312 270.085938 " clip-rule="nonzero"/></clipPath><clipPath id="id7"><path d="M 68.445312 270.085938 L 73.953125 37.652344 L 306.390625 43.164062 L 300.878906 275.597656 Z M 68.445312 270.085938 " clip-rule="nonzero"/></clipPath><clipPath id="id8"><path d="M 68.445312 270.085938 L 73.953125 37.652344 L 306.390625 43.164062 L 300.878906 275.597656 Z M 68.445312 270.085938 " clip-rule="nonzero"/></clipPath><clipPath id="id9"><path d="M 231 126 L 302 126 L 302 207 L 231 207 Z M 231 126 " clip-rule="nonzero"/></clipPath><clipPath id="id10"><path d="M 68.445312 270.085938 L 73.953125 37.652344 L 306.390625 43.164062 L 300.878906 275.597656 Z M 68.445312 270.085938 " clip-rule="nonzero"/></clipPath><clipPath id="id11"><path d="M 68.445312 270.085938 L 73.953125 37.652344 L 306.390625 43.164062 L 300.878906 275.597656 Z M 68.445312 270.085938 " clip-rule="nonzero"/></clipPath><clipPath id="id12"><path d="M 68.445312 270.085938 L 73.953125 37.652344 L 306.390625 43.164062 L 300.878906 275.597656 Z M 68.445312 270.085938 " clip-rule="nonzero"/></clipPath><clipPath id="id13"><path d="M 219 171 L 281 171 L 281 260 L 219 260 Z M 219 171 " clip-rule="nonzero"/></clipPath><clipPath id="id14"><path d="M 68.445312 270.085938 L 73.953125 37.652344 L 306.390625 43.164062 L 300.878906 275.597656 Z M 68.445312 270.085938 " clip-rule="nonzero"/></clipPath><clipPath id="id15"><path d="M 68.445312 270.085938 L 73.953125 37.652344 L 306.390625 43.164062 L 300.878906 275.597656 Z M 68.445312 270.085938 " clip-rule="nonzero"/></clipPath><clipPath id="id16"><path d="M 68.445312 270.085938 L 73.953125 37.652344 L 306.390625 43.164062 L 300.878906 275.597656 Z M 68.445312 270.085938 " clip-rule="nonzero"/></clipPath><clipPath id="id17"><path d="M 137 200 L 218 200 L 218 272 L 137 272 Z M 137 200 " clip-rule="nonzero"/></clipPath><clipPath id="id18"><path d="M 68.445312 270.085938 L 73.953125 37.652344 L 306.390625 43.164062 L 300.878906 275.597656 Z M 68.445312 270.085938 " clip-rule="nonzero"/></clipPath><clipPath id="id19"><path d="M 68.445312 270.085938 L 73.953125 37.652344 L 306.390625 43.164062 L 300.878906 275.597656 Z M 68.445312 270.085938 " clip-rule="nonzero"/></clipPath><clipPath id="id20"><path d="M 68.445312 270.085938 L 73.953125 37.652344 L 306.390625 43.164062 L 300.878906 275.597656 Z M 68.445312 270.085938 " clip-rule="nonzero"/></clipPath><clipPath id="id21"><path d="M 84 189 L 173 189 L 173 251 L 84 251 Z M 84 189 " clip-rule="nonzero"/></clipPath><clipPath id="id22"><path d="M 68.445312 270.085938 L 73.953125 37.652344 L 306.390625 43.164062 L 300.878906 275.597656 Z M 68.445312 270.085938 " clip-rule="nonzero"/></clipPath><clipPath id="id23"><path d="M 68.445312 270.085938 L 73.953125 37.652344 L 306.390625 43.164062 L 300.878906 275.597656 Z M 68.445312 270.085938 " clip-rule="nonzero"/></clipPath><clipPath id="id24"><path d="M 68.445312 270.085938 L 73.953125 37.652344 L 306.390625 43.164062 L 300.878906 275.597656 Z M 68.445312 270.085938 " clip-rule="nonzero"/></clipPath><clipPath id="id25"><path d="M 72 106 L 144 106 L 144 188 L 72 188 Z M 72 106 " clip-rule="nonzero"/></clipPath><clipPath id="id26"><path d="M 68.445312 270.085938 L 73.953125 37.652344 L 306.390625 43.164062 L 300.878906 275.597656 Z M 68.445312 270.085938 " clip-rule="nonzero"/></clipPath><clipPath id="id27"><path d="M 68.445312 270.085938 L 73.953125 37.652344 L 306.390625 43.164062 L 300.878906 275.597656 Z M 68.445312 270.085938 " clip-rule="nonzero"/></clipPath><clipPath id="id28"><path d="M 68.445312 270.085938 L 73.953125 37.652344 L 306.390625 43.164062 L 300.878906 275.597656 Z M 68.445312 270.085938 " clip-rule="nonzero"/></clipPath><clipPath id="id29"><path d="M 93 53 L 155 53 L 155 142 L 93 142 Z M 93 53 " clip-rule="nonzero"/></clipPath><clipPath id="id30"><path d="M 68.445312 270.085938 L 73.953125 37.652344 L 306.390625 43.164062 L 300.878906 275.597656 Z M 68.445312 270.085938 " clip-rule="nonzero"/></clipPath><clipPath id="id31"><path d="M 68.445312 270.085938 L 73.953125 37.652344 L 306.390625 43.164062 L 300.878906 275.597656 Z M 68.445312 270.085938 " clip-rule="nonzero"/></clipPath><clipPath id="id32"><path d="M 68.445312 270.085938 L 73.953125 37.652344 L 306.390625 43.164062 L 300.878906 275.597656 Z M 68.445312 270.085938 " clip-rule="nonzero"/></clipPath></defs><g clip-path="url(#id1)"><g clip-path="url(#id2)"><g clip-path="url(#id3)"><g clip-path="url(#id4)"><path fill="#17a353" d="M 200.335938 64.988281 C 200.648438 59.101562 198.578125 53.097656 194.078125 48.558594 C 186.082031 40.488281 173.011719 40 164.445312 47.460938 C 155.050781 55.644531 154.476562 69.914062 162.984375 78.824219 C 167.285156 83.328125 173.058594 85.570312 178.828125 85.53125 L 157.535156 105.867188 C 166.09375 114.828125 180.292969 115.15625 189.253906 106.597656 L 237.128906 60.878906 C 228.570312 51.917969 214.367188 51.589844 205.40625 60.148438 L 200.335938 64.988281 " fill-opacity="1" fill-rule="nonzero"/></g></g></g></g><g clip-path="url(#id5)"><g clip-path="url(#id6)"><g clip-path="url(#id7)"><g clip-path="url(#id8)"><path fill="#85c536" d="M 261.347656 100.964844 C 265.734375 97.023438 268.515625 91.3125 268.542969 84.921875 C 268.589844 73.5625 259.699219 63.972656 248.363281 63.191406 C 235.933594 62.332031 225.4375 72.019531 225.152344 84.335938 C 225.011719 90.5625 227.507812 96.230469 231.617188 100.28125 L 202.175781 99.605469 C 201.890625 111.992188 211.703125 122.265625 224.089844 122.550781 L 290.269531 124.070312 C 290.554688 111.683594 280.746094 101.410156 268.359375 101.128906 L 261.347656 100.964844 " fill-opacity="1" fill-rule="nonzero"/></g></g></g></g><g clip-path="url(#id9)"><g clip-path="url(#id10)"><g clip-path="url(#id11)"><g clip-path="url(#id12)"><path fill="#f06f25" d="M 279.050781 169.546875 C 284.941406 169.859375 290.941406 167.789062 295.484375 163.289062 C 303.550781 155.289062 304.042969 142.222656 296.582031 133.65625 C 288.398438 124.257812 274.128906 123.683594 265.214844 132.195312 C 260.714844 136.492188 258.472656 142.269531 258.511719 148.039062 L 238.171875 126.742188 C 229.214844 135.300781 228.886719 149.5 237.445312 158.464844 L 283.164062 206.335938 C 292.125 197.777344 292.453125 183.578125 283.894531 174.617188 L 279.050781 169.546875 " fill-opacity="1" fill-rule="nonzero"/></g></g></g></g><g clip-path="url(#id13)"><g clip-path="url(#id14)"><g clip-path="url(#id15)"><g clip-path="url(#id16)"><path fill="#eb1f38" d="M 243.074219 230.558594 C 247.019531 234.941406 252.726562 237.722656 259.121094 237.75 C 270.480469 237.800781 280.070312 228.90625 280.851562 217.574219 C 281.707031 205.144531 272.023438 194.644531 259.707031 194.363281 C 253.480469 194.21875 247.8125 196.71875 243.757812 200.824219 L 244.4375 171.386719 C 232.050781 171.101562 221.777344 180.914062 221.492188 193.300781 L 219.96875 259.480469 C 232.359375 259.765625 242.628906 249.953125 242.914062 237.566406 L 243.074219 230.558594 " fill-opacity="1" fill-rule="nonzero"/></g></g></g></g><g clip-path="url(#id17)"><g clip-path="url(#id18)"><g clip-path="url(#id19)"><g clip-path="url(#id20)"><path fill="#ea097f" d="M 174.496094 248.261719 C 174.183594 254.148438 176.253906 260.152344 180.753906 264.691406 C 188.75 272.761719 201.820312 273.253906 210.386719 265.789062 C 219.785156 257.605469 220.355469 243.335938 211.847656 234.425781 C 207.546875 229.921875 201.773438 227.679688 196.003906 227.71875 L 217.296875 207.382812 C 208.742188 198.421875 194.539062 198.09375 185.578125 206.652344 L 137.707031 252.371094 C 146.261719 261.332031 160.464844 261.660156 169.425781 253.101562 L 174.496094 248.261719 " fill-opacity="1" fill-rule="nonzero"/></g></g></g></g><g clip-path="url(#id21)"><g clip-path="url(#id22)"><g clip-path="url(#id23)"><g clip-path="url(#id24)"><path fill="#98198e" d="M 113.484375 212.285156 C 109.097656 216.226562 106.320312 221.9375 106.289062 228.328125 C 106.242188 239.691406 115.132812 249.277344 126.46875 250.058594 C 138.898438 250.917969 149.394531 241.230469 149.679688 228.914062 C 149.824219 222.6875 147.324219 217.023438 143.21875 212.96875 L 172.65625 213.644531 C 172.941406 201.257812 163.128906 190.988281 150.742188 190.699219 L 84.5625 189.179688 C 84.277344 201.566406 94.085938 211.839844 106.476562 212.125 L 113.484375 212.285156 " fill-opacity="1" fill-rule="nonzero"/></g></g></g></g><g clip-path="url(#id25)"><g clip-path="url(#id26)"><g clip-path="url(#id27)"><g clip-path="url(#id28)"><path fill="#323292" d="M 95.78125 143.703125 C 89.890625 143.390625 83.890625 145.460938 79.351562 149.964844 C 71.28125 157.960938 70.789062 171.03125 78.25 179.59375 C 86.433594 188.992188 100.707031 189.566406 109.617188 181.058594 C 114.117188 176.757812 116.359375 170.984375 116.324219 165.210938 L 136.660156 186.507812 C 145.621094 177.949219 145.945312 163.75 137.390625 154.789062 L 91.667969 106.914062 C 82.707031 115.472656 82.382812 129.675781 90.9375 138.632812 L 95.78125 143.703125 " fill-opacity="1" fill-rule="nonzero"/></g></g></g></g><g clip-path="url(#id29)"><g clip-path="url(#id30)"><g clip-path="url(#id31)"><g clip-path="url(#id32)"><path fill="#18abe3" d="M 131.757812 82.695312 C 127.8125 78.308594 122.105469 75.527344 115.710938 75.5 C 104.351562 75.449219 94.765625 84.34375 93.980469 95.675781 C 93.125 108.109375 102.808594 118.605469 115.128906 118.886719 C 121.351562 119.03125 127.019531 116.535156 131.074219 112.425781 L 130.394531 141.863281 C 142.78125 142.148438 153.054688 132.339844 153.339844 119.949219 L 154.863281 53.769531 C 142.476562 53.484375 132.203125 63.296875 131.917969 75.683594 L 131.757812 82.695312 " fill-opacity="1" fill-rule="nonzero"/></g></g></g></g><g fill="#ffffff" fill-opacity="1"><g transform="translate(61.135954, 321.683885)"><g><path d="M 33.921875 -33.234375 L 33.921875 1.1875 L 33.78125 1.1875 L 9.8125 -22.046875 L 9.953125 0 L 4.5625 0 L 4.5625 -34.375 L 4.84375 -34.375 L 28.71875 -10.859375 L 28.625 -33.234375 Z M 33.921875 -33.234375 "/></g></g></g><g fill="#ffffff" fill-opacity="1"><g transform="translate(105.286087, 321.683885)"><g><path d="M 26.625 -33.234375 L 26.625 -28.125 L 9.90625 -28.125 L 9.90625 -19.265625 L 24.796875 -19.265625 L 24.796875 -14.15625 L 9.90625 -14.15625 L 9.90625 -5.109375 L 27.25 -5.109375 L 27.25 0 L 4.5625 0 L 4.5625 -33.234375 Z M 26.625 -33.234375 "/></g></g></g><g fill="#ffffff" fill-opacity="1"><g transform="translate(140.944166, 321.683885)"><g><path d="M 31.640625 1.46875 L 23.78125 -18.359375 L 14.96875 1.546875 L 1.6875 -33.0625 L 7.90625 -33.0625 L 15.65625 -10.859375 L 21.1875 -25.015625 L 17.984375 -33.0625 L 23.234375 -33.0625 L 31.78125 -11.5 L 38.90625 -33.0625 L 44.609375 -33.0625 Z M 31.640625 1.46875 "/></g></g></g><g fill="#ffffff" fill-opacity="1"><g transform="translate(192.855862, 321.683885)"><g/></g></g><g fill="#ffffff" fill-opacity="1"><g transform="translate(213.082149, 321.683885)"><g><path d="M 9.90625 -33.234375 L 9.90625 -5.109375 L 26.296875 -5.109375 L 26.296875 0 L 4.5625 0 L 4.5625 -33.234375 Z M 9.90625 -33.234375 "/></g></g></g><g fill="#ffffff" fill-opacity="1"><g transform="translate(247.461858, 321.683885)"><g><path d="M 9.90625 -33.234375 L 9.90625 0 L 4.5625 0 L 4.5625 -33.234375 Z M 9.90625 -33.234375 "/></g></g></g><g fill="#ffffff" fill-opacity="1"><g transform="translate(267.55117, 321.683885)"><g><path d="M 24.75 -33.234375 L 24.75 -28.125 L 9.90625 -28.125 L 9.90625 -18.765625 L 22.828125 -18.765625 L 22.828125 -13.703125 L 9.90625 -13.703125 L 9.90625 0 L 4.5625 0 L 4.5625 -33.234375 Z M 24.75 -33.234375 "/></g></g></g><g fill="#ffffff" fill-opacity="1"><g transform="translate(300.241605, 321.683885)"><g><path d="M 26.625 -33.234375 L 26.625 -28.125 L 9.90625 -28.125 L 9.90625 -19.265625 L 24.796875 -19.265625 L 24.796875 -14.15625 L 9.90625 -14.15625 L 9.90625 -5.109375 L 27.25 -5.109375 L 27.25 0 L 4.5625 0 L 4.5625 -33.234375 Z M 26.625 -33.234375 "/></g></g></g></svg>